<svg width="158" height="162" viewBox="0 0 158 162" fill="none" xmlns="http://www.w3.org/2000/svg">
<g id="mbrilock_99595 1">
<path id="Vector" d="M79.9168 110.828L79.9152 110.829C78.8525 111.446 78.2002 112.578 78.2002 113.806V125.761C78.2002 126.826 77.4313 127.595 76.3669 127.595C75.3025 127.595 74.5336 126.826 74.5336 125.761V113.806C74.5336 112.586 73.8831 111.446 72.817 110.833C70.6193 109.563 69.2669 107.235 69.2669 104.695C69.2669 100.745 72.4156 97.6 76.3669 97.6C80.3175 97.6 83.4669 100.749 83.4669 104.7C83.4669 107.235 82.1153 109.558 79.9168 110.828ZM76.3669 1.2C54.1421 1.2 36.0669 19.2752 36.0669 41.5V57.3C36.0669 58.3859 36.4882 59.2593 37.1596 59.8535C37.816 60.4346 38.6684 60.7123 39.4958 60.7169C40.3233 60.7214 41.1795 60.4529 41.8397 59.8709C42.5151 59.2755 42.9336 58.3964 42.9336 57.3V41.5C42.9336 23.0029 57.8698 8.06667 76.3669 8.06667C94.864 8.06667 109.8 23.0029 109.8 41.5V57.3C109.8 58.4041 110.217 59.2867 110.896 59.8811C111.56 60.4618 112.42 60.7201 113.246 60.7069C114.073 60.6937 114.921 60.4086 115.574 59.8305C116.242 59.2394 116.667 58.3737 116.667 57.3V41.5C116.667 19.2752 98.5917 1.2 76.3669 1.2ZM76.3669 90.7333C68.6834 90.7333 62.4002 97.0165 62.4002 104.7C62.4002 108.916 64.5544 112.586 67.6669 115.162V125.767C67.6669 130.538 71.5959 134.467 76.3669 134.467C81.1379 134.467 85.0669 130.538 85.0669 125.767V115.151C88.1783 112.572 90.3336 108.912 90.3336 104.7C90.3336 97.0165 84.0504 90.7333 76.3669 90.7333ZM28.9669 64.4C24.1959 64.4 20.2669 68.329 20.2669 73.1V152.1C20.2669 156.871 24.1959 160.8 28.9669 160.8H123.767C128.538 160.8 132.467 156.871 132.467 152.1V73.1C132.467 68.329 128.538 64.4 123.767 64.4H28.9669ZM28.9669 71.2667H123.767C124.831 71.2667 125.6 72.0356 125.6 73.1V152.1C125.6 153.164 124.831 153.933 123.767 153.933H28.9669C27.9025 153.933 27.1336 153.164 27.1336 152.1V73.1C27.1336 72.0356 27.9025 71.2667 28.9669 71.2667Z" fill="#5277F6" stroke="#5277F6" stroke-width="1.6"/>
</g>
</svg>
